<?xml version="1.0" encoding="utf-8"?>
<!-- Generator: Adobe Illustrator 23.0.3, SVG Export Plug-In . SVG Version: 6.00 Build 0)  -->
<svg version="1.1" xmlns="http://www.w3.org/2000/svg" xmlns:xlink="http://www.w3.org/1999/xlink" x="0px" y="0px"
	 viewBox="0 0 367 94" style="enable-background:new 0 0 367 94;" xml:space="preserve">
<style type="text/css">
	.st0{opacity:0.36;fill:#FFB69F;}
	.st1{fill:#BA7D5A;}
	.st2{clip-path:url(#SVGID_2_);}
	.st3{fill:#3E464B;}
	.st4{fill:#6A6D7C;}
	.st5{fill:#3D464D;}
	.st6{opacity:0.15;fill:#383838;}
	.st7{opacity:0.72;clip-path:url(#SVGID_6_);fill:#3E464B;}
	.st8{opacity:0.25;fill:#3E464B;}
	.st9{clip-path:url(#SVGID_8_);}
	.st10{opacity:0.56;fill:#3E464B;}
	.st11{clip-path:url(#SVGID_10_);}
	.st12{clip-path:url(#SVGID_12_);}
	.st13{clip-path:url(#SVGID_14_);}
	.st14{opacity:0.38;fill:#3E464B;}
	.st15{fill:#131313;}
	.st16{opacity:0.69;fill:none;stroke:#494949;stroke-width:2;stroke-miterlimit:10;}
	.st17{fill:none;stroke:#7A7A7A;stroke-width:2;stroke-miterlimit:10;}
	.st18{fill:#FFFFFF;}
	.st19{opacity:0.52;fill:#FFFFFF;}
	.st20{opacity:0.84;}
	.st21{opacity:0.8;}
	.st22{fill:#606060;}
</style>
<g id="Layer_1">
</g>
<g id="Layer_2">
	<g>
		<g>
			<path class="st22" d="M2.1,73.38c-0.3,0-0.55-0.04-0.74-0.11c-0.57-0.15-0.86-0.53-0.86-1.14c0-0.76,0.97-3.62,2.91-8.57
				C11.67,42.58,22.3,24.21,35.28,8.45c2.36-2.89,4.07-4.75,5.14-5.57c1.06-0.82,1.92-1.23,2.57-1.23c0.34,0,0.65,0.08,0.91,0.23
				c0.95,0.46,1.43,1.37,1.43,2.74c0,1.11-0.38,2.8-1.14,5.08c-0.69,2.13-1.94,5.67-3.77,10.62c-3.05,8.19-6.49,17.84-10.34,28.96
				c-1.37,3.92-2.06,5.98-2.06,6.17c0.19,0.04,2.11-2.04,5.77-6.23c4.23-4.8,9.97-10.73,17.22-17.79
				c7.25-7.06,14.67-13.96,22.25-20.7c2.21-1.98,3.7-3.15,4.48-3.51c0.78-0.36,1.36-0.54,1.74-0.54c0.5,0,0.91,0.17,1.26,0.51
				c0.49,0.38,0.74,0.88,0.74,1.48c0,0.8-0.46,2.03-1.37,3.68c-0.91,1.66-2.36,4.01-4.34,7.05c-6.97,10.93-12.76,20.96-17.36,30.1
				c-4,7.88-6.4,12.85-7.2,14.91c-1.79,4.99-3.16,7.48-4.11,7.48c-0.11,0-0.27-0.04-0.46-0.11c-0.57-0.23-0.87-0.49-0.88-0.77
				c-0.02-0.29-0.03-0.46-0.03-0.54c0-0.49,0.17-1.2,0.51-2.11c1.18-3.43,3.12-7.98,5.83-13.65c3.31-6.82,6.55-13.02,9.71-18.62
				s6.93-11.78,11.31-18.56c2.02-3.08,3.03-4.7,3.03-4.86h-0.06c-0.04,0-0.17,0.1-0.4,0.29c-5.1,4.57-11.02,10.05-17.76,16.45
				c-8.53,8.11-14.64,14.22-18.33,18.33l-3.71,4.17c-4.45,5.03-7.2,7.9-8.22,8.62c-0.65,0.46-1.24,0.69-1.77,0.69
				c-1.33,0-2-0.78-2-2.34c0-1.03,0.74-3.69,2.23-8c3.43-10.17,6.4-18.6,8.91-25.3c3.88-10.51,6.19-17.1,6.91-19.76
				C28.35,20.59,16.7,39.74,6.95,63.28c-2.4,5.75-3.6,8.78-3.6,9.08c0,0.11-0.12,0.29-0.37,0.51C2.74,73.1,2.44,73.27,2.1,73.38z"/>
			<path class="st22" d="M67.61,51.91c-2.09,0-3.26-0.91-3.48-2.74c0-1.07,1.03-2.65,3.08-4.74c3.35-3.35,5.65-5.03,6.91-5.03
				l0.69,0.06c0.3,0,0.75-0.09,1.34-0.29c0.59-0.19,1.04-0.29,1.34-0.29c0.72,0,1.4,0.29,2.03,0.86c0.63,0.57,0.94,1.16,0.94,1.77
				c0,1.1-0.1,1.98-0.29,2.63v0.11c0,0.15,0.42,0.23,1.26,0.23c3.39,0,5.48,0.27,6.28,0.8c0.38,0.23,0.57,0.59,0.57,1.08
				c0,0.53-0.23,0.95-0.69,1.26c-0.38,0.15-1.47,0.23-3.26,0.23c-2.25,0-4.44-0.15-6.57-0.46C73.58,50.41,70.2,51.91,67.61,51.91z
				 M68.12,48.6c0.69,0,2.23-0.57,4.63-1.71l0.86-0.46c0-0.04-0.06-0.13-0.17-0.29c-0.91-1.03-1.38-1.58-1.4-1.66
				c-0.02-0.08-0.07-0.11-0.14-0.11c-0.34,0-1.22,0.78-2.63,2.34c-0.91,0.99-1.37,1.58-1.37,1.77C67.89,48.56,67.97,48.6,68.12,48.6
				z M76.35,43.74c0.23,0,0.55-0.48,0.97-1.43c0-0.04-0.02-0.06-0.06-0.06c-0.11,0-0.38,0.11-0.8,0.34
				c-0.61,0.38-0.91,0.65-0.91,0.8c0,0.08,0.1,0.15,0.31,0.23C76.07,43.71,76.23,43.74,76.35,43.74z"/>
			<path class="st22" d="M86.97,49.45c-0.34,0-0.65-0.06-0.91-0.17c-0.69-0.42-1.03-0.97-1.03-1.66c0-0.61,0.53-1.92,1.6-3.94
				c1.87-3.73,3.2-6.04,4-6.91c0.34-0.3,0.69-0.46,1.03-0.46c0.19,0,0.38,0.04,0.57,0.11c0.61,0.19,0.91,0.59,0.91,1.2
				c0,0.42-0.76,1.9-2.28,4.46l-1.2,2.29l0.57-0.34c1.64-1.14,3.96-2.61,6.97-4.4c2.25-1.33,3.84-2,4.8-2c1.26,0,1.96,0.8,2.11,2.4
				c0,0.42-0.23,1.18-0.69,2.29c-0.3,0.69-0.46,1.12-0.46,1.31l0.06,0.06c0.23-0.08,1.1-0.61,2.63-1.6c2.51-1.6,4.28-2.4,5.31-2.4
				c0.46,0,0.92,0.12,1.4,0.37s0.78,0.58,0.91,1c0.13,0.42,0.2,1.07,0.2,1.94l-0.06,1.77c0,1.07,0.63,1.6,1.88,1.6
				c0.53,0,1.14-0.08,1.83-0.23c3.28-0.76,5.26-1.14,5.94-1.14c0.84,0,1.26,0.48,1.26,1.43c0,0.57-0.4,0.98-1.2,1.23
				c-0.8,0.25-1.78,0.51-2.94,0.8c-1.16,0.29-2.3,0.5-3.43,0.66s-1.91,0.23-2.37,0.23c-2.67,0-4-1.33-4-4l0.06-1.31
				c0-0.53-0.19-0.8-0.57-0.8c-0.5,0-1.28,0.4-2.34,1.2c-3.47,2.59-5.83,3.88-7.08,3.88c-0.65,0-1.17-0.18-1.57-0.54
				c-0.4-0.36-0.6-0.87-0.6-1.51s0.46-1.87,1.37-3.66l0.23-0.69l-0.06-0.06c-0.08,0.08-0.19,0.15-0.34,0.23
				c-0.15,0.08-0.31,0.17-0.49,0.29c-0.17,0.12-0.38,0.24-0.63,0.37c-0.25,0.13-0.52,0.31-0.83,0.51c-0.3,0.21-1.2,0.79-2.68,1.74
				C90.24,47.97,87.62,49.45,86.97,49.45z"/>
			<path class="st22" d="M127.98,52.02c-4.3,0-6.45-1.39-6.45-4.17c0-0.99,0.29-2.13,0.86-3.43c1.14-2.25,2.71-3.97,4.71-5.17
				c2-1.2,3.87-1.8,5.63-1.8c0.34,0,0.67,0.02,0.97,0.06c1.6,0.34,2.44,1.1,2.51,2.28c0,1.18-0.76,2.36-2.28,3.54
				c-2.86,2.09-5.48,3.14-7.88,3.14h-0.8c-0.11,0.34-0.17,0.65-0.17,0.91c0,0.99,0.7,1.49,2.11,1.49c2.06,0,4.82-0.67,8.28-2
				c3.12-1.22,4.85-1.83,5.2-1.83c0.84,0,1.28,0.4,1.31,1.2c0,0.46-0.16,0.85-0.49,1.17c-0.32,0.32-1.15,0.77-2.48,1.34
				C134.66,50.75,130.98,51.83,127.98,52.02z M127.41,43.29c0.65,0,1.73-0.48,3.25-1.43c1.26-0.76,1.88-1.26,1.88-1.48
				c0-0.15-0.11-0.23-0.34-0.23s-0.53,0.06-0.91,0.17C130.53,40.54,129.23,41.54,127.41,43.29z"/>
			<path class="st22" d="M155.22,49.45c-3.12,0-4.68-1.69-4.68-5.08c0-1.14-0.06-1.71-0.17-1.71c-0.23,0-1.43,0.82-3.6,2.46
				c-0.91,0.69-1.79,1.37-2.63,2.06c-1.87,1.52-3.07,2.28-3.6,2.28c-0.42,0-0.8-0.17-1.14-0.51c-0.42-0.3-0.63-0.72-0.63-1.26
				c0-0.69,0.56-2.14,1.69-4.37c1.12-2.23,1.84-3.61,2.14-4.14c0.46-0.8,1.01-1.22,1.66-1.26c0.95,0,1.43,0.46,1.43,1.37
				c0,0.31-0.22,0.91-0.66,1.83s-0.66,1.41-0.66,1.48c0,0.04,0.04,0.06,0.11,0.06c3.35-2.4,5.52-3.6,6.51-3.6
				c0.34,0,0.69,0.1,1.03,0.29c0.65,0.31,1.11,0.76,1.4,1.37c0.29,0.61,0.45,1.54,0.48,2.8c0.08,1.49,0.17,2.31,0.29,2.48
				c0.11,0.17,0.38,0.26,0.8,0.26c0.88,0,2.44-0.29,4.68-0.86c1.83-0.46,2.95-0.69,3.37-0.69c0.95,0,1.43,0.46,1.43,1.37
				c0,0.34-0.15,0.67-0.46,0.97c-0.65,0.57-2.36,1.2-5.14,1.88C157.47,49.28,156.25,49.45,155.22,49.45z"/>
			<path class="st22" d="M164.82,52.14c-2.29,0-3.43-1.09-3.43-3.26c0-2.4,1.87-7.35,5.6-14.85l2.74-5.65
				c0-0.08-0.31-0.11-0.91-0.11c-0.61,0-2.99-0.27-7.14-0.8c-4.15-0.53-7.33-0.8-9.54-0.8c-1.45,0-2.5,0.11-3.17,0.31
				c-0.67,0.21-1.21,0.31-1.63,0.31c-0.88,0-1.31-0.38-1.31-1.14c0-1.71,2.38-2.57,7.14-2.57c2.25,0,6.68,0.36,13.31,1.08l5.25,0.46
				l0.91-1.43c0.53-0.91,0.96-1.6,1.29-2.06c0.32-0.46,0.59-0.76,0.8-0.91c0.21-0.15,0.45-0.23,0.71-0.23
				c0.69,0,1.18,0.36,1.48,1.08v0.17c0,0.49-0.15,1.08-0.46,1.77l-0.51,1.54c1.71,0,3.41-0.12,5.08-0.34
				c4.19-0.57,6.63-1.05,7.31-1.43c0.27-0.27,0.48-0.53,0.63-0.8c0.38-0.53,0.86-0.8,1.43-0.8c0.69,0,1.22,0.38,1.6,1.14
				c0.11,0.27,0.17,0.51,0.17,0.74c0,1.56-1.98,2.78-5.94,3.66c-2.7,0.61-5.9,0.99-9.59,1.14l-3.31,0.17
				c-5.75,11.5-8.63,18.13-8.63,19.88c0,0.34,0.13,0.51,0.4,0.51c3.16-0.38,6.66-1.39,10.51-3.03c1.75-0.72,2.86-1.08,3.31-1.08
				c0.38,0,0.7,0.23,0.97,0.68c0.19,0.23,0.29,0.46,0.29,0.69c0,1.03-1.93,2.28-5.8,3.74C170.52,51.41,167.33,52.14,164.82,52.14z"
				/>
		</g>
		<g>
			<path class="st22" d="M194.95,87.89c-0.46,0-0.82-0.2-1.09-0.6c-0.27-0.4-0.4-0.71-0.4-0.94c0-0.68,1.94-4.99,5.83-12.91
				c2.7-5.6,4.05-8.43,4.05-8.51c0-0.08-0.48-0.11-1.43-0.11c-0.95,0-1.6-0.18-1.94-0.54c-0.34-0.36-0.51-0.68-0.51-0.94
				c0-0.95,0.95-1.49,2.86-1.6c0.53-0.04,1.01-0.08,1.43-0.11s0.73-0.06,0.94-0.06c0.21,0,0.77-0.82,1.68-2.46
				c1.71-3.12,2.57-5.86,2.57-8.22c0-0.42-0.09-0.8-0.29-1.14c-0.38-0.65-1.69-1.5-3.94-2.57c-3.85-1.87-5.98-3.92-6.4-6.17
				c-0.08-0.38-0.11-0.93-0.11-1.66c0-1.07,0.11-1.88,0.34-2.46c1.56-4.3,5.83-8.42,12.79-12.34c4.19-2.25,8.72-3.88,13.59-4.91
				c4.87-1.03,9.35-1.54,13.42-1.54c5.41,0,9.46,0.63,12.17,1.88c2.06,0.99,3.58,2.51,4.57,4.57c0.84,1.79,1.26,3.64,1.26,5.54
				c0,3.88-1.66,8.07-4.97,12.57c-3.73,5.14-10.19,9.94-19.36,14.39c-7.39,3.66-14.32,6.04-20.79,7.14l-3.08,0.51
				c-1.98,4.38-3.73,8.03-5.25,10.97c-3.47,6.66-5.69,10.53-6.68,11.59C195.78,87.68,195.37,87.89,194.95,87.89z M209.91,60.99
				c0.72,0,2.57-0.36,5.54-1.09c7.73-2.06,15.46-5.46,23.19-10.22c6.55-4.34,11-9.21,13.36-14.62c0.69-1.79,1.03-3.46,1.03-5.03
				c0-3.77-1.68-6.26-5.03-7.48c-2.06-0.68-5.33-1.03-9.82-1.03c-2.78,0-5.16,0.12-7.14,0.34c-1.98,0.23-4.25,0.68-6.8,1.37
				c-8.19,2.06-14.6,5.37-19.25,9.94c-2.32,2.25-3.48,4.25-3.48,6c0,1.14,0.32,2.05,0.97,2.71c0.65,0.67,1.92,1.46,3.83,2.37
				c2.78,1.33,4.46,2.53,5.03,3.6l0.51,0.86c4.15-7.16,6.72-11.67,7.71-13.54c0.57-1.03,1-1.67,1.29-1.94
				c0.29-0.27,0.58-0.4,0.89-0.4c0.95,0,1.43,0.51,1.43,1.54c0,0.3-2.88,5.79-8.63,16.45c-3.2,5.9-4.8,9.27-4.8,10.11
				C209.74,60.97,209.79,60.99,209.91,60.99z"/>
			<path class="st22" d="M244.29,64.7c-0.84,0-1.37-0.34-1.6-1.03c-0.08-0.19-0.11-0.36-0.11-0.51c0-0.61,0.96-2.94,2.88-7
				c1.92-4.06,3.02-6.25,3.28-6.6c0.42-0.53,0.91-0.8,1.49-0.8c0.84,0,1.33,0.44,1.49,1.31c0,0.11-0.02,0.28-0.06,0.49
				s-0.36,0.88-0.97,2.03c-0.61,1.14-0.91,1.75-0.91,1.83l1.43-1.09c1.67-1.45,3.63-2.8,5.88-4.05c0.53-0.27,1.01-0.4,1.43-0.4
				c0.76,0,1.39,0.38,1.88,1.14c0.38,0.61,0.57,1.28,0.57,2c0,0.61-0.13,1.31-0.4,2.11c-0.27,0.8-0.4,1.41-0.4,1.83
				c0,0.46,0.14,0.7,0.43,0.74s0.68,0.06,1.17,0.06c0.84,0,1.88-0.12,3.14-0.37c1.26-0.25,2.23-0.37,2.91-0.37
				c1.1,0,1.66,0.46,1.66,1.37c0,0.84-0.27,1.37-0.8,1.6c-0.72,0.31-1.98,0.56-3.77,0.77c-1.79,0.21-2.93,0.31-3.43,0.31
				c-3.31,0-4.97-1.33-4.97-4c0-0.49,0.09-0.95,0.26-1.37c0.17-0.42,0.26-0.72,0.26-0.91c0-0.23-0.1-0.34-0.29-0.34
				s-0.5,0.15-0.91,0.46c-2.09,1.45-4.37,3.55-6.82,6.31c-2.46,2.76-3.8,4.2-4.03,4.31C244.75,64.65,244.52,64.7,244.29,64.7z"/>
			<path class="st22" d="M268.17,62.88c-2.09,0-3.25-0.91-3.48-2.74c0-1.07,1.03-2.65,3.08-4.74c3.35-3.35,5.65-5.03,6.91-5.03
				l0.69,0.06c0.3,0,0.75-0.09,1.34-0.29c0.59-0.19,1.04-0.29,1.34-0.29c0.72,0,1.4,0.29,2.03,0.86c0.63,0.57,0.94,1.16,0.94,1.77
				c0,1.1-0.1,1.98-0.29,2.63v0.11c0,0.15,0.42,0.23,1.26,0.23c3.39,0,5.48,0.27,6.28,0.8c0.38,0.23,0.57,0.59,0.57,1.08
				c0,0.53-0.23,0.95-0.68,1.26c-0.38,0.15-1.47,0.23-3.25,0.23c-2.25,0-4.44-0.15-6.57-0.46
				C274.14,61.37,270.75,62.88,268.17,62.88z M268.68,59.56c0.69,0,2.23-0.57,4.63-1.71l0.86-0.46c0-0.04-0.06-0.13-0.17-0.29
				c-0.91-1.03-1.38-1.58-1.4-1.66c-0.02-0.08-0.07-0.11-0.14-0.11c-0.34,0-1.22,0.78-2.63,2.34c-0.91,0.99-1.37,1.58-1.37,1.77
				C268.45,59.53,268.53,59.56,268.68,59.56z M276.9,54.71c0.23,0,0.55-0.48,0.97-1.43c0-0.04-0.02-0.06-0.06-0.06
				c-0.11,0-0.38,0.11-0.8,0.34c-0.61,0.38-0.91,0.65-0.91,0.8c0,0.08,0.11,0.15,0.31,0.23C276.63,54.67,276.79,54.71,276.9,54.71z"
				/>
			<path class="st22" d="M275.59,74.3c-0.3,0-0.59-0.04-0.86-0.11c-1.14-0.38-1.94-1.12-2.4-2.23c-0.15-0.46-0.23-0.88-0.23-1.26
				c0-0.23,0.04-0.49,0.11-0.8c1.03-3.2,4.59-6.38,10.68-9.54l2.57-1.26l2.4-5.6c0.61-1.45,1.06-2.24,1.34-2.37s0.52-0.2,0.71-0.2
				c0.23,0,0.49,0.1,0.8,0.29c0.3,0.19,0.49,0.39,0.57,0.6c0.08,0.21,0.11,0.39,0.11,0.54c0,0.53-0.4,1.7-1.2,3.48
				c-0.42,0.99-0.63,1.56-0.63,1.71c0,0.04,0.04,0.06,0.11,0.06h0.11c4.26-1.14,7.56-1.71,9.88-1.71c1.37,0,2.06,0.5,2.06,1.49
				c0,0.69-0.46,1.16-1.37,1.43c-0.57,0.15-1.41,0.32-2.51,0.51c-3.43,0.57-6.82,1.41-10.17,2.51c-1.56,3.05-2.74,5.16-3.54,6.34
				C281.34,72.26,278.48,74.3,275.59,74.3z M275.82,70.99c1.83,0,3.98-1.92,6.45-5.77c0.31-0.53,0.46-0.88,0.46-1.03
				c-0.08,0-0.7,0.36-1.88,1.09c-1.45,0.99-2.7,2.02-3.77,3.08c-1.07,1.07-1.6,1.87-1.6,2.4C275.48,70.91,275.59,70.99,275.82,70.99
				z M292.04,50.2c-0.38,0-0.72-0.15-1.03-0.46c-0.31-0.3-0.46-0.65-0.46-1.03c0-0.19,0.06-0.4,0.17-0.63
				c0.23-0.57,0.67-0.86,1.31-0.86c0.34,0,0.68,0.15,1,0.46c0.32,0.31,0.48,0.65,0.48,1.03c0,0.34-0.16,0.68-0.48,1
				C292.71,50.04,292.38,50.2,292.04,50.2z"/>
			<path class="st22" d="M305.4,62.99c-4.3,0-6.46-1.39-6.46-4.17c0-0.99,0.29-2.13,0.86-3.43c1.14-2.25,2.71-3.97,4.71-5.17
				c2-1.2,3.87-1.8,5.63-1.8c0.34,0,0.67,0.02,0.97,0.06c1.6,0.34,2.44,1.1,2.51,2.28c0,1.18-0.76,2.36-2.28,3.54
				c-2.86,2.09-5.48,3.14-7.88,3.14h-0.8c-0.11,0.34-0.17,0.65-0.17,0.91c0,0.99,0.71,1.49,2.11,1.49c2.06,0,4.82-0.67,8.28-2
				c3.12-1.22,4.85-1.83,5.2-1.83c0.84,0,1.28,0.4,1.31,1.2c0,0.46-0.16,0.85-0.49,1.17c-0.32,0.32-1.15,0.77-2.48,1.34
				C312.09,61.71,308.41,62.8,305.4,62.99z M304.83,54.25c0.65,0,1.73-0.48,3.26-1.43c1.26-0.76,1.88-1.26,1.88-1.48
				c0-0.15-0.11-0.23-0.34-0.23c-0.23,0-0.53,0.06-0.91,0.17C307.95,51.51,306.66,52.5,304.83,54.25z"/>
			<path class="st22" d="M319,64.82c-0.76,0-1.39-0.11-1.88-0.34c-1.52-0.57-2.28-1.71-2.28-3.43c0-1.83,1.26-4.07,3.77-6.74
				c3.46-3.62,6.43-5.43,8.91-5.43c0.99,0,1.81,0.31,2.46,0.91c0.53,0.46,0.8,0.97,0.8,1.54c0,0.27-0.07,0.56-0.2,0.88
				c-0.13,0.32-0.33,0.51-0.6,0.57c-0.27,0.06-0.46,0.08-0.57,0.08c-0.34,0-0.7-0.11-1.08-0.34c-0.27-0.15-0.55-0.23-0.86-0.23
				c-1.29,0-3.16,1.12-5.6,3.37c-0.57,0.57-1.14,1.2-1.71,1.88c-0.57,0.69-1.05,1.32-1.43,1.91s-0.57,0.98-0.57,1.17
				c0,0.27,0.44,0.4,1.31,0.4c2.17,0,5.51-0.87,10.02-2.6c4.51-1.73,7.01-2.6,7.51-2.6c0.91,0,1.37,0.59,1.37,1.77
				c0,0.34-0.1,0.61-0.29,0.8c-0.61,0.8-3.32,2.07-8.14,3.8C325.12,63.95,321.47,64.82,319,64.82z"/>
			<path class="st22" d="M338.64,63.11c-2.29,0-3.43-1.09-3.43-3.26c0-2.4,1.87-7.35,5.6-14.85l2.74-5.65
				c0-0.08-0.31-0.11-0.91-0.11c-0.61,0-2.99-0.27-7.14-0.8s-7.33-0.8-9.54-0.8c-1.45,0-2.5,0.11-3.17,0.31
				c-0.67,0.21-1.21,0.31-1.63,0.31c-0.88,0-1.31-0.38-1.31-1.14c0-1.71,2.38-2.57,7.14-2.57c2.25,0,6.68,0.36,13.31,1.08l5.25,0.46
				l0.91-1.43c0.53-0.91,0.96-1.6,1.29-2.06c0.32-0.46,0.59-0.76,0.8-0.91c0.21-0.15,0.45-0.23,0.71-0.23
				c0.69,0,1.18,0.36,1.48,1.08v0.17c0,0.49-0.15,1.08-0.46,1.77l-0.51,1.54c1.71,0,3.41-0.12,5.08-0.34
				c4.19-0.57,6.63-1.05,7.31-1.43c0.27-0.27,0.47-0.53,0.63-0.8c0.38-0.53,0.86-0.8,1.43-0.8c0.69,0,1.22,0.38,1.6,1.14
				c0.12,0.27,0.17,0.51,0.17,0.74c0,1.56-1.98,2.78-5.94,3.66c-2.71,0.61-5.9,0.99-9.6,1.14l-3.31,0.17
				c-5.75,11.5-8.62,18.13-8.62,19.88c0,0.34,0.13,0.51,0.4,0.51c3.16-0.38,6.66-1.39,10.51-3.03c1.75-0.72,2.86-1.08,3.31-1.08
				c0.38,0,0.7,0.23,0.97,0.68c0.19,0.23,0.29,0.46,0.29,0.69c0,1.03-1.93,2.28-5.8,3.74C344.35,62.37,341.16,63.11,338.64,63.11z"
				/>
		</g>
		<g>
			<path class="st5" d="M6.7,93.73c-1.01,0-1.94-0.3-2.77-0.91l0.29-0.59c0,0,0.04,0.03,0.12,0.08c0.08,0.05,0.14,0.09,0.19,0.12
				c0.05,0.03,0.13,0.08,0.23,0.13c0.11,0.06,0.2,0.11,0.29,0.14c0.09,0.04,0.2,0.08,0.33,0.13c0.13,0.05,0.26,0.09,0.39,0.12
				c0.13,0.03,0.27,0.05,0.43,0.07c0.16,0.02,0.32,0.03,0.47,0.03c1.41,0,2.12-0.51,2.12-1.54c0-0.43-0.11-0.75-0.32-0.97
				c-0.22-0.22-0.59-0.41-1.12-0.57l-1.61-0.49c-0.63-0.19-1.1-0.44-1.39-0.74c-0.3-0.3-0.45-0.73-0.45-1.3
				c0-0.71,0.26-1.24,0.78-1.58c0.52-0.35,1.24-0.52,2.15-0.52c0.95,0,1.75,0.2,2.39,0.59l-0.25,0.57
				c-0.63-0.34-1.34-0.52-2.14-0.52c-1.44,0-2.16,0.47-2.17,1.4c0,0.41,0.09,0.71,0.28,0.89c0.18,0.18,0.55,0.36,1.1,0.53l1.57,0.49
				c0.68,0.21,1.17,0.47,1.47,0.78c0.3,0.31,0.46,0.74,0.46,1.3c0,0.4-0.07,0.75-0.22,1.06c-0.15,0.3-0.35,0.55-0.61,0.74
				s-0.55,0.33-0.89,0.42C7.47,93.69,7.1,93.73,6.7,93.73z"/>
			<path class="st5" d="M16.12,93.73c-1.23,0-2.22-0.38-2.96-1.13c-0.74-0.75-1.11-1.75-1.11-3.01c0-1.29,0.35-2.32,1.05-3.09
				c0.7-0.77,1.64-1.16,2.82-1.16c1.08,0,1.94,0.34,2.58,1.04c0.64,0.69,0.96,1.61,0.96,2.77v0.45h-6.63
				c-0.01,1.06,0.28,1.9,0.88,2.54s1.4,0.95,2.41,0.95c0.5,0,0.98-0.08,1.45-0.24c0.47-0.16,0.89-0.38,1.25-0.66l0.28,0.54
				c-0.37,0.31-0.82,0.55-1.36,0.73C17.2,93.64,16.66,93.73,16.12,93.73z M12.88,89.05h5.95c-0.05-0.93-0.34-1.68-0.86-2.23
				s-1.2-0.83-2.04-0.83c-0.85,0-1.56,0.28-2.11,0.83C13.27,87.38,12.95,88.12,12.88,89.05z"/>
			<path class="st5" d="M26.62,93.73c-0.73,0-1.39-0.18-1.96-0.55s-0.97-0.86-1.19-1.48l-0.04,1.87h-0.77l0.01-0.14
				c0-0.09,0-0.22,0.01-0.37c0-0.15,0.01-0.32,0.02-0.49c0.01-0.18,0.01-0.37,0.02-0.56c0-0.2,0-0.38,0-0.53v-9.75h0.77v5.6
				c0.25-0.6,0.65-1.08,1.22-1.44s1.21-0.54,1.92-0.54c1.1,0,1.98,0.38,2.64,1.13c0.66,0.75,0.98,1.76,0.98,3.03
				c0,1.29-0.33,2.31-0.98,3.08S27.72,93.73,26.62,93.73z M26.62,93.09c0.9,0,1.6-0.32,2.11-0.96c0.5-0.64,0.75-1.52,0.75-2.62
				c0-1.08-0.25-1.94-0.75-2.57c-0.5-0.63-1.2-0.95-2.11-0.95c-0.96,0-1.72,0.32-2.29,0.95c-0.57,0.63-0.85,1.49-0.85,2.56
				c0,1.09,0.28,1.96,0.85,2.61C24.89,92.77,25.66,93.09,26.62,93.09z"/>
			<path class="st5" d="M36.55,93.73c-1.15,0-2.06-0.39-2.74-1.16c-0.68-0.77-1.02-1.8-1.02-3.1c0-1.26,0.34-2.26,1.03-3
				c0.69-0.75,1.61-1.12,2.76-1.12c0.67,0,1.25,0.16,1.76,0.49c0.5,0.33,0.87,0.75,1.1,1.29v-1.57h0.77v8.02h-0.77v-1.68
				c-0.25,0.56-0.62,1.01-1.11,1.34C37.83,93.57,37.24,93.73,36.55,93.73z M36.58,93.09c0.9,0,1.6-0.32,2.11-0.97
				c0.5-0.65,0.75-1.53,0.75-2.64c0-1.06-0.26-1.9-0.78-2.54c-0.52-0.63-1.21-0.95-2.08-0.95c-0.91,0-1.64,0.32-2.19,0.95
				s-0.82,1.48-0.82,2.54c0,1.1,0.27,1.98,0.82,2.63C34.93,92.77,35.66,93.09,36.58,93.09z"/>
			<path class="st5" d="M44.45,93.57v-6.06c0-0.3-0.01-0.61-0.02-0.93c-0.01-0.33-0.02-0.58-0.04-0.75l-0.02-0.27h0.78l0.08,1.49
				c0.17-0.58,0.46-1.01,0.88-1.27c0.42-0.26,0.91-0.39,1.48-0.39c0.26,0,0.52,0.02,0.79,0.07l-0.04,0.7
				c-0.25-0.05-0.49-0.07-0.73-0.07c-0.73,0-1.32,0.25-1.75,0.75c-0.43,0.5-0.65,1.29-0.65,2.37v4.37H44.45z"/>
			<path class="st5" d="M51.42,93.57V81.73h0.77v7.55l4.28-3.73h1.01l-4.36,3.77l4.69,4.24h-1l-4.62-4.18v4.18H51.42z"/>
			<path class="st5" d="M63.58,93.73c-1.15,0-2.06-0.39-2.74-1.16c-0.68-0.77-1.02-1.8-1.02-3.1c0-1.26,0.34-2.26,1.03-3
				c0.69-0.75,1.61-1.12,2.76-1.12c0.67,0,1.25,0.16,1.76,0.49c0.5,0.33,0.87,0.75,1.1,1.29v-1.57h0.77v8.02h-0.77v-1.68
				c-0.25,0.56-0.62,1.01-1.11,1.34C64.87,93.57,64.27,93.73,63.58,93.73z M63.61,93.09c0.9,0,1.6-0.32,2.11-0.97
				c0.5-0.65,0.75-1.53,0.75-2.64c0-1.06-0.26-1.9-0.78-2.54c-0.52-0.63-1.21-0.95-2.08-0.95c-0.91,0-1.64,0.32-2.19,0.95
				s-0.82,1.48-0.82,2.54c0,1.1,0.27,1.98,0.82,2.63C61.96,92.77,62.69,93.09,63.61,93.09z"/>
			<path class="st5" d="M71.46,93.57V86.7l-0.05-1.14h0.7l0.08,1.61c0.27-0.58,0.68-1.03,1.24-1.34c0.56-0.31,1.2-0.47,1.91-0.47
				c1.92,0,2.88,1.12,2.88,3.36v4.86h-0.77v-4.86c0-1.81-0.7-2.72-2.11-2.72c-0.78,0-1.44,0.2-1.99,0.59
				c-0.55,0.39-0.93,0.96-1.13,1.69v5.3H71.46z"/>
			<path class="st5" d="M88.05,93.57V86.7L88,85.55h0.7l0.08,1.61c0.27-0.59,0.66-1.04,1.17-1.35c0.51-0.31,1.12-0.46,1.83-0.46
				c1.4,0,2.26,0.68,2.58,2.05c0.27-0.68,0.68-1.2,1.24-1.54s1.18-0.52,1.86-0.52c0.89,0,1.57,0.29,2.03,0.86s0.69,1.4,0.69,2.5
				v4.86h-0.77v-4.86c0-0.89-0.17-1.57-0.5-2.03s-0.82-0.69-1.46-0.69c-0.82,0-1.48,0.23-1.98,0.69s-0.82,1.14-0.98,2.03v4.86h-0.77
				v-4.86c0-0.89-0.17-1.57-0.5-2.03s-0.82-0.69-1.46-0.69c-0.77,0-1.4,0.19-1.9,0.58c-0.5,0.39-0.86,0.95-1.06,1.7v5.3H88.05z"/>
			<path class="st5" d="M107.49,93.73c-1.23,0-2.22-0.38-2.95-1.13c-0.73-0.75-1.1-1.76-1.1-3.02c0-1.29,0.37-2.32,1.1-3.09
				s1.72-1.15,2.95-1.15s2.22,0.38,2.95,1.15s1.1,1.79,1.1,3.09c0,1.26-0.37,2.27-1.1,3.02C109.71,93.36,108.72,93.73,107.49,93.73z
				 M107.49,93.09c1.03,0,1.83-0.32,2.41-0.95c0.58-0.63,0.87-1.48,0.87-2.56c0-1.1-0.29-1.98-0.87-2.63
				c-0.58-0.65-1.38-0.97-2.41-0.97c-1.03,0-1.83,0.32-2.41,0.97c-0.58,0.65-0.87,1.52-0.87,2.63c0,1.08,0.29,1.93,0.87,2.56
				C105.66,92.78,106.46,93.09,107.49,93.09z"/>
			<path class="st5" d="M114.91,93.57V86.7l-0.05-1.14h0.7l0.08,1.61c0.27-0.59,0.66-1.04,1.17-1.35c0.51-0.31,1.12-0.46,1.83-0.46
				c1.4,0,2.26,0.68,2.58,2.05c0.27-0.68,0.68-1.2,1.24-1.54s1.18-0.52,1.86-0.52c0.89,0,1.57,0.29,2.03,0.86s0.69,1.4,0.69,2.5
				v4.86h-0.77v-4.86c0-0.89-0.17-1.57-0.5-2.03c-0.33-0.46-0.82-0.69-1.46-0.69c-0.82,0-1.48,0.23-1.98,0.69
				c-0.5,0.46-0.82,1.14-0.98,2.03v4.86h-0.77v-4.86c0-0.89-0.17-1.57-0.5-2.03c-0.33-0.46-0.82-0.69-1.46-0.69
				c-0.77,0-1.4,0.19-1.9,0.58c-0.5,0.39-0.86,0.95-1.06,1.7v5.3H114.91z"/>
			<path class="st5" d="M134.36,93.73c-1.23,0-2.22-0.38-2.96-1.13s-1.11-1.75-1.11-3.01c0-1.29,0.35-2.32,1.05-3.09
				c0.7-0.77,1.64-1.16,2.82-1.16c1.08,0,1.94,0.34,2.58,1.04c0.64,0.69,0.96,1.61,0.96,2.77v0.45h-6.63
				c-0.01,1.06,0.28,1.9,0.88,2.54s1.4,0.95,2.41,0.95c0.5,0,0.98-0.08,1.45-0.24c0.47-0.16,0.89-0.38,1.25-0.66l0.28,0.54
				c-0.37,0.31-0.82,0.55-1.36,0.73C135.44,93.64,134.9,93.73,134.36,93.73z M131.12,89.05h5.95c-0.05-0.93-0.34-1.68-0.86-2.23
				s-1.2-0.83-2.04-0.83c-0.85,0-1.56,0.28-2.11,0.83S131.2,88.12,131.12,89.05z"/>
			<path class="st5" d="M141,93.57V86.7l-0.05-1.14h0.7l0.08,1.61c0.27-0.58,0.68-1.03,1.24-1.34c0.56-0.31,1.2-0.47,1.91-0.47
				c1.92,0,2.88,1.12,2.88,3.36v4.86h-0.77v-4.86c0-1.81-0.7-2.72-2.11-2.72c-0.78,0-1.44,0.2-1.99,0.59
				c-0.55,0.39-0.93,0.96-1.13,1.69v5.3H141z"/>
			<path class="st5" d="M151.86,93.57V86.7l-0.05-1.14h0.7l0.08,1.61c0.27-0.59,0.66-1.04,1.17-1.35c0.51-0.31,1.12-0.46,1.83-0.46
				c1.4,0,2.26,0.68,2.58,2.05c0.27-0.68,0.68-1.2,1.24-1.54s1.18-0.52,1.86-0.52c0.89,0,1.57,0.29,2.03,0.86s0.69,1.4,0.69,2.5
				v4.86h-0.77v-4.86c0-0.89-0.17-1.57-0.5-2.03c-0.33-0.46-0.82-0.69-1.46-0.69c-0.82,0-1.48,0.23-1.98,0.69
				c-0.5,0.46-0.82,1.14-0.98,2.03v4.86h-0.77v-4.86c0-0.89-0.17-1.57-0.5-2.03c-0.33-0.46-0.82-0.69-1.46-0.69
				c-0.77,0-1.4,0.19-1.9,0.58c-0.5,0.39-0.86,0.95-1.06,1.7v5.3H151.86z"/>
			<path class="st5" d="M171.05,93.77c-0.99,0-1.75-0.29-2.25-0.87s-0.76-1.43-0.76-2.55v-4.8h0.77v4.83c0,0.9,0.19,1.58,0.57,2.05
				c0.38,0.47,0.94,0.7,1.68,0.7c0.38,0,0.74-0.06,1.08-0.17c0.34-0.12,0.62-0.26,0.86-0.44c0.23-0.18,0.43-0.37,0.6-0.59
				c0.17-0.21,0.29-0.42,0.38-0.61c0.08-0.2,0.12-0.37,0.12-0.53v-5.24h0.77v6.26c0,0.71,0.01,1.3,0.04,1.76h-0.7l-0.07-1.49
				C173.41,93.21,172.39,93.77,171.05,93.77z"/>
		</g>
	</g>
</g>
</svg>
