<?xml version="1.0" encoding="utf-8"?>
<!-- Generator: Adobe Illustrator 23.0.3, SVG Export Plug-In . SVG Version: 6.00 Build 0)  -->
<svg version="1.1" xmlns="http://www.w3.org/2000/svg" xmlns:xlink="http://www.w3.org/1999/xlink" x="0px" y="0px"
	 viewBox="0 0 61 36" style="enable-background:new 0 0 61 36;" xml:space="preserve">
<style type="text/css">
	.st0{opacity:0.36;fill:#FFB69F;}
	.st1{fill:#BA7D5A;}
	.st2{clip-path:url(#SVGID_2_);}
	.st3{fill:#3E464B;}
	.st4{fill:#6A6D7C;}
	.st5{fill:#3D464D;}
	.st6{opacity:0.15;fill:#383838;}
	.st7{opacity:0.72;clip-path:url(#SVGID_6_);fill:#3E464B;}
	.st8{opacity:0.25;fill:#3E464B;}
	.st9{clip-path:url(#SVGID_8_);}
	.st10{opacity:0.56;fill:#3E464B;}
	.st11{clip-path:url(#SVGID_10_);}
	.st12{clip-path:url(#SVGID_12_);}
	.st13{clip-path:url(#SVGID_14_);}
	.st14{opacity:0.38;fill:#3E464B;}
	.st15{fill:#131313;}
	.st16{opacity:0.69;fill:none;stroke:#494949;stroke-width:2;stroke-miterlimit:10;}
	.st17{fill:none;stroke:#7A7A7A;stroke-width:2;stroke-miterlimit:10;}
	.st18{fill:#FFFFFF;}
	.st19{opacity:0.52;fill:#FFFFFF;}
	.st20{opacity:0.84;}
	.st21{opacity:0.8;}
	.st22{fill:#606060;}
</style>
<g id="Layer_1">
</g>
<g id="Layer_2">
	<g>
		<g>
			<path class="st1" d="M59.14,19.44H3.49c-1.04,0-1.88-0.84-1.88-1.88s0.84-1.88,1.88-1.88h55.65c1.04,0,1.88,0.84,1.88,1.88
				S60.18,19.44,59.14,19.44z"/>
		</g>
		<g>
			<path class="st1" d="M59.14,4.44H3.49c-1.04,0-1.88-0.84-1.88-1.88s0.84-1.88,1.88-1.88h55.65c1.04,0,1.88,0.84,1.88,1.88
				S60.18,4.44,59.14,4.44z"/>
		</g>
		<g>
			<path class="st1" d="M59.14,35.23H16.27c-1.04,0-1.88-0.84-1.88-1.88s0.84-1.88,1.88-1.88h42.87c1.04,0,1.88,0.84,1.88,1.88
				S60.18,35.23,59.14,35.23z"/>
		</g>
	</g>
</g>
</svg>
