<?xml version="1.0" encoding="utf-8"?>
<!-- Generator: Adobe Illustrator 23.0.3, SVG Export Plug-In . SVG Version: 6.00 Build 0)  -->
<svg version="1.1" xmlns="http://www.w3.org/2000/svg" xmlns:xlink="http://www.w3.org/1999/xlink" x="0px" y="0px"
	 viewBox="0 0 34 36" style="enable-background:new 0 0 34 36;" xml:space="preserve">
<style type="text/css">
	.st0{opacity:0.36;fill:#FFB69F;}
	.st1{fill:#BA7D5A;}
	.st2{clip-path:url(#SVGID_2_);}
	.st3{fill:#3E464B;}
	.st4{fill:#6A6D7C;}
	.st5{fill:#3D464D;}
	.st6{opacity:0.15;fill:#383838;}
	.st7{opacity:0.72;clip-path:url(#SVGID_6_);fill:#3E464B;}
	.st8{opacity:0.25;fill:#3E464B;}
	.st9{clip-path:url(#SVGID_8_);}
	.st10{opacity:0.56;fill:#3E464B;}
	.st11{clip-path:url(#SVGID_10_);}
	.st12{clip-path:url(#SVGID_12_);}
	.st13{clip-path:url(#SVGID_14_);}
	.st14{opacity:0.38;fill:#3E464B;}
	.st15{fill:#131313;}
	.st16{opacity:0.69;fill:none;stroke:#494949;stroke-width:2;stroke-miterlimit:10;}
	.st17{fill:none;stroke:#7A7A7A;stroke-width:2;stroke-miterlimit:10;}
	.st18{fill:#FFFFFF;}
	.st19{opacity:0.52;fill:#FFFFFF;}
	.st20{opacity:0.84;}
	.st21{opacity:0.8;}
	.st22{fill:#606060;}
</style>
<g id="Layer_1">
</g>
<g id="Layer_2">
	<g>
		<g>
			<path class="st1" d="M13.87,26.68c-7.29,0-13.22-5.93-13.22-13.22S6.58,0.23,13.87,0.23S27.1,6.16,27.1,13.45
				S21.16,26.68,13.87,26.68z M13.87,3.44c-5.52,0-10.01,4.49-10.01,10.01s4.49,10.01,10.01,10.01s10.01-4.49,10.01-10.01
				S19.39,3.44,13.87,3.44z"/>
		</g>
		<g>
			<path class="st1" d="M32.27,35.18c-0.41,0-0.82-0.16-1.13-0.47L20.05,23.62c-0.63-0.63-0.63-1.64,0-2.27
				c0.63-0.63,1.64-0.63,2.27,0l11.09,11.09c0.63,0.63,0.63,1.64,0,2.27C33.09,35.02,32.68,35.18,32.27,35.18z"/>
		</g>
	</g>
</g>
</svg>
